<!--?xml version="1.0" standalone="no"?-->
              <svg id="sw-js-blob-svg" viewBox="0 0 100 100" xmlns="http://www.w3.org/2000/svg" version="1.1">
                    <defs> 
                        <linearGradient id="sw-gradient" x1="0" x2="1" y1="1" y2="0">
                            <stop id="stop1" stop-color="rgba(55, 159.74, 248, 1)" offset="0%"></stop>
                            <stop id="stop2" stop-color="rgba(31, 90.774, 251, 1)" offset="100%"></stop>
                        </linearGradient>
                    </defs>
                <path fill="url(#sw-gradient)" d="M18,-29C24.7,-23.7,32.3,-21,37.2,-15.5C42.1,-9.9,44.2,-1.6,43.1,6.2C42.1,14.1,37.8,21.6,31.7,25.9C25.5,30.2,17.5,31.4,10,33.2C2.4,35.1,-4.7,37.7,-12.2,37.4C-19.7,37.1,-27.5,33.9,-33.3,28.3C-39.1,22.7,-42.9,14.7,-42.9,6.9C-42.8,-0.9,-39.1,-8.5,-35.4,-16.1C-31.8,-23.6,-28.3,-31.1,-22.4,-36.7C-16.6,-42.4,-8.3,-46.1,-1.3,-44.1C5.7,-42,11.3,-34.2,18,-29Z" width="100%" height="100%" transform="translate(50 50)" stroke-width="0" style="transition: all 0.3s ease 0s;" stroke="url(#sw-gradient)"></path>
              </svg>